# xmcd
#
# Track frame offsets: 
#        150
#        20170
#        35667
#        53167
#        65287
#        78522
#        91720
#        109765
#        122862
#        138060
#        150432
#        162117
#        175172
#        191837
#
# Disc length: 2716 seconds
#
# Revision: 2
# Processed by: cddbd v1.5.1PL0 Copyright (c) Steve Scherf et al.
# Submitted via: ExactAudioCopy v0.95a3
#
DISCID=b00a9a0e
DTITLE=Various Artist - Country Hot Hits #11
DYEAR=1900
DGENRE=
TTITLE0=Wyonna - She Is His Only Need
TTITLE1=Garth Brooks - What She's Doing Now
TTITLE2=Reba McEntire - Is There Life Out There
TTITLE3=Randy Travis - Better Class Of Losers
TTITLE4=Lorrie Morgan - Except For Monday
TTITLE5=George Strait - Lovesick Blues
TTITLE6=Pam Tillis - Maybe It Was Memphis
TTITLE7=John Anderson - Straight Tequila Night
TTITLE8=Patty Loveless - Jealous Bone
TTITLE9=Alan Jackson - Dallas
TTITLE10=Dwight Yoakum - It Only Hurts When I Cry
TTITLE11=Suzy Bogguss - Outbound Plane
TTITLE12=Billy Dean - Only The Wind
TTITLE13=Trisha Yearwood - That's What I Like About You
EXTD=
EXTT0=Judd - Wynonna
EXTT1=Brooks - Garth
EXTT2=McEntire - Reba
EXTT3=Travis - Randy
EXTT4=Morgan - Lorrie
EXTT5=Strait - George
EXTT6=Tillis - Pam
EXTT7=Anderson - John
EXTT8=Loveless - Patty
EXTT9=Jackson - Alan
EXTT10=Yoakum - Dwight
EXTT11=Bogguss - Suzy
EXTT12=Dean - Billy
EXTT13=Yearwood - Trisha
PLAYORDER=
